<?xml version="1.0" encoding="UTF-8" ?>
<!DOCTYPE svg PUBLIC "-//W3C//DTD SVG 1.1//EN" "http://www.w3.org/Graphics/SVG/1.1/DTD/svg11.dtd">
<svg width="480pt" height="480pt" viewBox="0 0 480 480" version="1.1" xmlns="http://www.w3.org/2000/svg">
<g id="#ffffffff">
<path fill="#ffffff" opacity="1.00" d=" M 0.00 0.00 L 239.71 0.00 C 170.45 39.94 101.21 79.91 31.99 119.93 C 32.00 199.97 32.01 280.02 31.99 360.07 C 101.20 400.09 170.45 440.06 239.71 480.00 L 0.00 480.00 L 0.00 0.00 Z" />
<path fill="#ffffff" opacity="1.00" d=" M 240.29 0.00 L 480.00 0.00 L 480.00 480.00 L 240.30 480.00 C 309.55 440.06 378.79 400.09 448.00 360.08 C 448.00 280.02 448.00 199.97 448.00 119.92 C 378.78 79.92 309.55 39.93 240.29 0.00 Z" />
<path fill="#ffffff" opacity="1.00" d=" M 373.30 123.24 C 379.27 119.39 386.90 120.21 393.49 121.71 C 398.47 123.01 404.11 125.62 405.56 131.03 C 406.77 136.53 405.50 142.28 403.61 147.48 C 397.09 163.88 388.15 179.15 379.23 194.32 C 360.93 225.43 341.84 256.10 325.02 288.05 C 318.42 300.62 312.06 313.33 306.66 326.46 C 302.23 337.21 298.05 348.34 297.52 360.08 C 297.80 365.99 305.23 370.39 310.47 367.50 C 327.97 360.48 344.00 350.41 360.46 341.32 C 363.56 339.76 367.15 340.34 370.50 340.26 C 370.34 343.61 371.43 347.89 368.32 350.25 C 349.76 361.09 332.07 373.66 312.12 381.93 C 302.02 385.92 290.35 387.07 280.06 383.06 C 273.43 380.76 267.36 376.20 264.25 369.80 C 259.97 361.55 260.60 351.85 261.86 342.95 C 265.45 323.33 273.53 304.90 282.12 287.02 C 301.35 248.55 324.29 212.11 347.05 175.66 C 336.14 186.23 326.14 197.70 316.22 209.20 C 298.36 229.95 282.06 251.98 266.62 274.57 C 257.50 287.74 249.14 301.45 239.13 313.98 C 234.41 320.19 226.84 324.20 219.00 324.27 C 214.74 324.32 209.91 324.59 206.48 321.59 C 200.29 316.46 199.95 307.46 200.85 300.09 C 203.52 281.50 211.68 264.26 220.14 247.69 C 204.88 260.49 190.98 274.82 177.70 289.64 C 172.88 294.35 171.07 301.04 167.80 306.75 C 159.69 322.88 151.24 338.91 144.86 355.84 C 143.51 359.82 141.76 363.84 141.86 368.12 C 141.82 371.47 145.29 373.77 144.77 377.20 C 144.46 380.79 140.73 383.61 137.17 382.69 C 129.81 379.51 122.99 373.93 120.53 366.05 C 118.66 361.24 119.36 356.03 119.25 351.01 C 119.58 341.44 121.81 332.07 124.37 322.88 C 132.79 292.95 145.11 264.21 159.87 236.88 C 167.68 222.61 175.94 208.56 185.25 195.22 C 192.39 184.85 200.01 174.82 207.58 164.77 C 176.76 174.58 147.11 189.20 122.39 210.26 C 116.15 215.12 110.66 221.12 107.24 228.30 C 106.12 230.98 105.32 233.99 106.23 236.85 C 108.56 237.35 111.28 237.13 113.18 238.81 C 116.25 241.23 115.95 246.69 112.65 248.77 C 103.91 253.18 92.50 250.03 86.95 242.03 C 83.03 236.64 81.72 229.45 83.59 223.04 C 85.89 213.58 92.11 205.75 98.62 198.78 C 111.33 185.36 126.99 175.21 143.02 166.22 C 161.57 155.82 181.22 147.19 201.85 141.84 C 213.54 138.66 226.27 138.43 237.84 142.25 C 243.27 144.71 249.65 148.40 250.20 155.03 C 250.61 162.91 246.58 170.17 242.78 176.80 C 232.61 193.66 222.12 210.32 211.88 227.14 C 222.42 219.14 232.05 208.10 245.90 206.35 C 252.00 205.82 258.86 205.10 264.22 208.71 C 268.25 211.28 269.80 216.38 269.52 220.95 C 268.98 227.66 266.23 233.87 263.93 240.11 C 282.66 214.11 302.63 188.93 324.73 165.68 C 339.56 150.11 355.24 135.04 373.30 123.24 Z" />
</g>
<g id="#000000ff">
<path fill="#000000" opacity="1.00" d=" M 239.71 0.00 L 240.29 0.00 C 309.55 39.93 378.78 79.92 448.00 119.92 C 448.00 199.97 448.00 280.02 448.00 360.08 C 378.79 400.09 309.55 440.06 240.30 480.00 L 239.71 480.00 C 170.45 440.06 101.20 400.09 31.99 360.07 C 32.01 280.02 32.00 199.97 31.99 119.93 C 101.21 79.91 170.45 39.94 239.71 0.00 M 373.30 123.24 C 355.24 135.04 339.56 150.11 324.73 165.68 C 302.63 188.93 282.66 214.11 263.93 240.11 C 266.23 233.87 268.98 227.66 269.52 220.95 C 269.80 216.38 268.25 211.28 264.22 208.71 C 258.86 205.10 252.00 205.82 245.90 206.35 C 232.05 208.10 222.42 219.14 211.88 227.14 C 222.12 210.32 232.61 193.66 242.78 176.80 C 246.58 170.17 250.61 162.91 250.20 155.03 C 249.65 148.40 243.27 144.71 237.84 142.25 C 226.27 138.43 213.54 138.66 201.85 141.84 C 181.22 147.19 161.57 155.82 143.02 166.22 C 126.99 175.21 111.33 185.36 98.62 198.78 C 92.11 205.75 85.89 213.58 83.59 223.04 C 81.72 229.45 83.03 236.64 86.95 242.03 C 92.50 250.03 103.91 253.18 112.65 248.77 C 115.95 246.69 116.25 241.23 113.18 238.81 C 111.28 237.13 108.56 237.35 106.23 236.85 C 105.32 233.99 106.12 230.98 107.24 228.30 C 110.66 221.12 116.15 215.12 122.39 210.26 C 147.11 189.20 176.76 174.58 207.58 164.77 C 200.01 174.82 192.39 184.85 185.25 195.22 C 175.94 208.56 167.68 222.61 159.87 236.88 C 145.11 264.21 132.79 292.95 124.37 322.88 C 121.81 332.07 119.58 341.44 119.25 351.01 C 119.36 356.03 118.66 361.24 120.53 366.05 C 122.99 373.93 129.81 379.51 137.17 382.69 C 140.73 383.61 144.46 380.79 144.77 377.20 C 145.29 373.77 141.82 371.47 141.86 368.12 C 141.76 363.84 143.51 359.82 144.86 355.84 C 151.24 338.91 159.69 322.88 167.80 306.75 C 171.07 301.04 172.88 294.35 177.70 289.64 C 190.98 274.82 204.88 260.49 220.14 247.69 C 211.68 264.26 203.52 281.50 200.85 300.09 C 199.95 307.46 200.29 316.46 206.48 321.59 C 209.91 324.59 214.74 324.32 219.00 324.27 C 226.84 324.20 234.41 320.19 239.13 313.98 C 249.14 301.45 257.50 287.74 266.62 274.57 C 282.06 251.98 298.36 229.95 316.22 209.20 C 326.14 197.70 336.14 186.23 347.05 175.66 C 324.29 212.11 301.35 248.55 282.12 287.02 C 273.53 304.90 265.45 323.33 261.86 342.95 C 260.60 351.85 259.97 361.55 264.25 369.80 C 267.36 376.20 273.43 380.76 280.06 383.06 C 290.35 387.07 302.02 385.92 312.12 381.93 C 332.07 373.66 349.76 361.09 368.32 350.25 C 371.43 347.89 370.34 343.61 370.50 340.26 C 367.15 340.34 363.56 339.76 360.46 341.32 C 344.00 350.41 327.97 360.48 310.47 367.50 C 305.23 370.39 297.80 365.99 297.52 360.08 C 298.05 348.34 302.23 337.21 306.66 326.46 C 312.06 313.33 318.42 300.62 325.02 288.05 C 341.84 256.10 360.93 225.43 379.23 194.32 C 388.15 179.15 397.09 163.88 403.61 147.48 C 405.50 142.28 406.77 136.53 405.56 131.03 C 404.11 125.62 398.47 123.01 393.49 121.71 C 386.90 120.21 379.27 119.39 373.30 123.24 Z" />
</g>
</svg>
